<?xml version="1.0" encoding="utf-8" ?>
<svg baseProfile="tiny" height="512px" version="1.2" width="512px" xmlns="http://www.w3.org/2000/svg" xmlns:ev="http://www.w3.org/2001/xml-events" xmlns:xlink="http://www.w3.org/1999/xlink"><defs /><path d="M50,10 Q20,80 50,110 Q80,80 50,10 Z" fill="none" stroke="black" /><path d="M256 128 C256 80, 192 80, 192 128 C192 160, 256 192, 256 192 C256 192, 320 160, 320 128 C320 80, 256 80, 256 128 Z" fill="brown" transform="scale(0.1) translate(1500, 600)" /><rect fill="white" height="80" stroke="black" width="112" x="200" y="200" /><line stroke="black" x1="180" x2="140" y1="210" y2="170" /><line stroke="black" x1="332" x2="372" y1="210" y2="170" /><text fill="brown" font-family="Arial" font-size="16px" x="70" y="50">St. Aloysius Gonzaga</text><text fill="brown" font-family="Arial" font-size="14px" x="130" y="70">Sec. School</text><path d="M100,400 Q150,370 200,400 Q250,430 300,400" fill="#3B90D4" stroke="black" /><text fill="white" font-family="Arial" font-size="12px" x="150" y="405">LEARN LOVE &amp; SERVE</text></svg>